# xmcd
#
# Track frame offsets:
#       150
#       16626
#       29956
#       49130
#       67829
#       84109
#       94865
#       107446
#
# Disc length: 1744 seconds
#
# Revision: 0
# Processed by: cddbd v1.5.2PL0 Copyright (c) Steve Scherf et al.
# Submitted via: WhereIsIt 3.74
#
DISCID=5506ce08
DTITLE=The Dixie Bee-Liners/The Dixie Bee-Liners
DYEAR=2005
DGENRE=bluegrass
TTITLE0=Davy
TTITLE1=Brown-Eyed Darlin'
TTITLE2=Lost in the Silence
TTITLE3=Roses Are Grey
TTITLE4=Family Tree
TTITLE5=My Heart's Breakin' In
TTITLE6=Yellow-Haired Girl
TTITLE7=Lord, Lay Down My Ball and Chain
EXTD=
EXTT0=
EXTT1=
EXTT2=
EXTT3=
EXTT4=
EXTT5=
EXTT6=
EXTT7=
PLAYORDER=
